<svg width="144" height="81" viewBox="0 0 144 81" fill="none" xmlns="http://www.w3.org/2000/svg">
<g clip-path="url(#clip0_2142_980)">
<path d="M141.649 57.2831C121.966 67.9416 36.0043 94.157 22.0327 71.8554C17.4736 64.0524 21.4445 53.1231 28.7979 48.8647C52.6966 34.8585 83.1644 34.2677 103.975 14.8708C107.504 11.4001 110.323 7.1416 111.818 2.36621L112.407 2.53852C106.083 22.8954 83.1644 30.5508 65.32 37.7385C55.9321 41.3078 46.2991 44.4339 37.4995 48.7662C33.2345 50.957 28.8224 53.5908 26.788 57.1108C12.7184 91.5478 96.3516 65.0862 109.759 60.1631C118.657 56.9385 128.29 53.6647 136.379 48.9139L141.698 57.2339L141.649 57.2831Z" fill="#151659"/>
<path d="M141.208 66.7847L142.531 58.0216L143.855 49.2339L135.178 47.9047L126.476 46.6001V46.6247L138.536 52.6555L141.183 66.7847H141.208Z" fill="#151659"/>
<path d="M112.039 0.569336C116.132 37.9109 71.9382 60.2863 39.8281 56.3478C48.2111 55.4616 56.4224 53.9109 64.2416 51.3016C87.4785 43.8678 108.46 25.874 112.014 0.569336H112.039Z" fill="#151659"/>
<path d="M94.8809 45.5908C91.0571 55.1662 80.6397 61.3939 70.7371 62.9693C60.2952 63.24 48.4071 62.5262 39.7056 55.9539C44.8285 57.3816 49.8778 58.0216 54.9762 58.2431C59.6824 58.44 66.2025 58.1939 70.1733 58.0954C79.022 56.5201 88.3609 52.1385 94.8809 45.5908Z" fill="#151659"/>
<path d="M66.0799 67.0061C60.1726 75.3507 43.2597 65.3815 39.681 58.3169C43.0391 59.6461 49.7552 62.3046 53.1133 63.6092C57.1822 65.0369 61.7904 67.4984 66.0799 67.0061Z" fill="#151659"/>
<path d="M18.0864 54.1323C6.32089 51.0554 4.09034 38.6 13.3067 30.9446C22.1063 23.4369 34.0189 27.2523 36.2984 38.7231C31.8619 29.9846 23.2828 26.7846 15.3901 33.4554C7.30135 40.2984 9.50738 49.0615 18.0864 54.1323Z" fill="#151659"/>
<path d="M6.4925 37.5911C5.48753 35.9911 1.78629 30.0834 0.854858 28.6064C2.52164 28.9018 9.28681 30.1326 11.0761 30.4526C11.0761 30.4772 3.33052 31.5111 3.33052 31.5111L4.48256 29.788C4.48256 29.788 6.56603 37.5911 6.51701 37.5664L6.4925 37.5911Z" fill="#151659"/>
</g>
<defs>
<clipPath id="clip0_2142_980">
<rect width="143" height="80" fill="white" transform="translate(0.854858 0.569336)"/>
</clipPath>
</defs>
</svg>
