<svg width="211" height="116" viewBox="0 0 211 116" fill="none" xmlns="http://www.w3.org/2000/svg">
<path d="M83.3176 46.09L70.0062 75.3043L66.3496 47.8048C59.2929 48.2493 52.1721 48.4081 45.0192 48.4399L37.5455 94.4207H49.189L55.6042 55.2036L60.5759 94.4207H73.3421L91.2404 55.2036L84.8252 94.4207H96.4687L105.129 41.0728C98.1046 43.3908 90.7913 44.9786 83.3176 46.09Z" fill="#151659"/>
<path d="M114.656 59.2682H108.241L110.165 47.519H116.837L119.884 28.8154H139.065L137.205 40.1201H129.411L128.192 47.519H137.975L136.05 59.2682H126.267L117.19 113.061H105.546L114.624 59.2682H114.656Z" fill="#151659"/>
<path d="M148.207 28.8472H159.85L149.426 93.1822H137.782L148.207 28.8472Z" fill="#151659"/>
<path d="M172.52 92.1344L167.998 69.8426L163.475 47.5508H176.305L178.967 62.8566L181.63 78.1623L188.847 62.8566L196.064 47.5508H210.177L193.081 80.3217L181.534 110.52C180.379 113.569 177.396 115.601 174.092 115.569H165.175L0.145142 113.95L164.982 107.186C166.49 107.186 167.805 106.202 168.286 104.773L172.52 92.1344Z" fill="#151659"/>
<path d="M111.512 31.2922C99.5158 37.3574 52.5248 51.9963 43.5757 39.5167C41.7474 36.4365 42.421 33.0705 43.9927 30.022C45.9172 27.1641 48.7399 25.8622 51.338 24.6237C66.1891 17.86 87.3912 16.6533 94.8969 0.680664C91.2724 12.1124 78.2817 16.3357 68.1137 20.3686C60.8004 23.5123 51.2097 25.0365 46.1418 31.2605C38.4757 50.8531 85.4666 35.8649 93.4535 33.134C98.4253 31.3557 104.231 29.3869 108.625 26.8148L111.512 31.2605V31.2922Z" fill="#151659"/>
</svg>
