<svg width="64" height="64" viewBox="0 0 64 64" fill="none" xmlns="http://www.w3.org/2000/svg">
<path d="M20 33C18.3431 33 17 34.3431 17 36V44C17 45.6569 18.3431 47 20 47H23C24.6569 47 26 45.6569 26 44V36C26 34.3431 24.6569 33 23 33H20Z" fill="#1E3A8A"/>
<path d="M28 30C28 28.3431 29.3431 27 31 27H34C35.6569 27 37 28.3431 37 30V44C37 45.6569 35.6569 47 34 47H31C29.3431 47 28 45.6569 28 44V30Z" fill="#1E3A8A"/>
<path d="M42 20C40.3431 20 39 21.3431 39 23V44C39 45.6569 40.3431 47 42 47H45C46.6569 47 48 45.6569 48 44V23C48 21.3431 46.6569 20 45 20H42Z" fill="#1E3A8A"/>
<path fill-rule="evenodd" clip-rule="evenodd" d="M8 14C8 12.3431 9.34315 11 11 11H54C55.6569 11 57 12.3431 57 14V52C57 53.6569 55.6569 55 54 55H11C9.34314 55 8 53.6569 8 52V14ZM12 51V15H53V51H12Z" fill="#1E3A8A"/>
</svg>
