<svg width="49" height="44" viewBox="0 0 49 44" fill="none" xmlns="http://www.w3.org/2000/svg">
<path d="M12 22C10.3431 22 9 23.3431 9 25V33C9 34.6569 10.3431 36 12 36H15C16.6569 36 18 34.6569 18 33V25C18 23.3431 16.6569 22 15 22H12Z" fill="#1E3A8A"/>
<path d="M20 19C20 17.3431 21.3431 16 23 16H26C27.6569 16 29 17.3431 29 19V33C29 34.6569 27.6569 36 26 36H23C21.3431 36 20 34.6569 20 33V19Z" fill="#1E3A8A"/>
<path d="M34 9C32.3431 9 31 10.3431 31 12V33C31 34.6569 32.3431 36 34 36H37C38.6569 36 40 34.6569 40 33V12C40 10.3431 38.6569 9 37 9H34Z" fill="#1E3A8A"/>
<path fill-rule="evenodd" clip-rule="evenodd" d="M0 3C0 1.34315 1.34315 0 3 0H46C47.6569 0 49 1.34315 49 3V41C49 42.6569 47.6569 44 46 44H3C1.34314 44 0 42.6569 0 41V3ZM4 40V4H45V40H4Z" fill="#1E3A8A"/>
</svg>
