<svg width="49" height="49" viewBox="0 0 49 49" fill="none" xmlns="http://www.w3.org/2000/svg">
<path d="M23.7495 30.9845C23.9831 31.0142 24.2236 31.0029 24.4597 30.9469C24.6255 30.9079 24.7834 30.8483 24.9304 30.7709L32.8944 26.7889C33.8824 26.2949 34.2828 25.0935 33.7889 24.1056C33.2949 23.1176 32.0935 22.7172 31.1056 23.2111L26 25.7639V12C26 10.8954 25.1046 10 24 10C22.8954 10 22 10.8954 22 12V28.9598C21.9965 29.1259 22.0138 29.2937 22.053 29.4595C22.176 29.9826 22.5044 30.4265 22.9484 30.7015C23.1867 30.8492 23.4584 30.9481 23.7495 30.9845Z" fill="#1E3A8A"/>
<path fill-rule="evenodd" clip-rule="evenodd" d="M49 24.5C49 38.031 38.031 49 24.5 49C10.969 49 0 38.031 0 24.5C0 10.969 10.969 0 24.5 0C38.031 0 49 10.969 49 24.5ZM45 24.5C45 35.8218 35.8218 45 24.5 45C13.1782 45 4 35.8218 4 24.5C4 13.1782 13.1782 4 24.5 4C35.8218 4 45 13.1782 45 24.5Z" fill="#1E3A8A"/>
</svg>
