<svg width="65" height="65" viewBox="0 0 65 65" fill="none" xmlns="http://www.w3.org/2000/svg">
<path fill-rule="evenodd" clip-rule="evenodd" d="M32.5 65C50.4493 65 65 50.6731 65 33C65 15.3269 50.4493 1 32.5 1C14.5507 1 0 15.3269 0 33C0 50.6731 14.5507 65 32.5 65ZM15 19.0667C15 15.7161 17.6754 13 20.9756 13H44.0244C47.3246 13 50 15.7161 50 19.0667V35.5333C50 38.8839 47.3246 41.6 44.0244 41.6H38.9024V45.0667H40.6098C42.4956 45.0667 44.0244 46.6187 44.0244 48.5333C44.0244 50.4479 42.4956 52 40.6098 52H25.2439C23.3581 52 21.8293 50.4479 21.8293 48.5333C21.8293 46.6187 23.3581 45.0667 25.2439 45.0667H26.9512V41.6H20.9756C17.6754 41.6 15 38.8839 15 35.5333V19.0667ZM18.4146 19.0667C18.4146 17.6307 19.5612 16.4667 20.9756 16.4667H44.0244C45.4388 16.4667 46.5854 17.6307 46.5854 19.0667V35.5333C46.5854 36.9693 45.4388 38.1333 44.0244 38.1333H20.9756C19.5612 38.1333 18.4146 36.9693 18.4146 35.5333V19.0667Z" fill="#1E3A8A"/>
</svg>
