<svg width="41" height="45" viewBox="0 0 41 45" fill="none" xmlns="http://www.w3.org/2000/svg">
<path fill-rule="evenodd" clip-rule="evenodd" d="M7 0C3.13401 0 0 3.13401 0 7V26C0 29.866 3.13401 33 7 33H14V37H12C9.79086 37 8 38.7909 8 41C8 43.2091 9.79086 45 12 45H30C32.2091 45 34 43.2091 34 41C34 38.7909 32.2091 37 30 37H28V33H34C37.866 33 41 29.866 41 26V7C41 3.13401 37.866 0 34 0H7ZM34 4H7C5.34315 4 4 5.34315 4 7V26C4 27.6569 5.34315 29 7 29H34C35.6569 29 37 27.6569 37 26V7C37 5.34315 35.6569 4 34 4Z" fill="#1E3A8A"/>
</svg>
