<svg width="46" height="46" viewBox="0 0 46 46" fill="none" xmlns="http://www.w3.org/2000/svg">
<path d="M17 19.5C17 21.433 15.433 23 13.5 23C11.567 23 10 21.433 10 19.5C10 17.567 11.567 16 13.5 16C15.433 16 17 17.567 17 19.5Z" fill="#1E3A8A"/>
<path d="M36 19.5C36 21.433 34.433 23 32.5 23C30.567 23 29 21.433 29 19.5C29 17.567 30.567 16 32.5 16C34.433 16 36 17.567 36 19.5Z" fill="#1E3A8A"/>
<path d="M17.7506 30.5617C18.6131 31.2518 19.8717 31.1119 20.5617 30.2494C21.8118 28.6869 24.1882 28.6869 25.4383 30.2494C26.1283 31.1119 27.3869 31.2518 28.2494 30.5617C29.1119 29.8717 29.2518 28.6131 28.5617 27.7506C25.7104 24.1865 20.2896 24.1865 17.4383 27.7506C16.7482 28.6131 16.8881 29.8717 17.7506 30.5617Z" fill="#1E3A8A"/>
<path fill-rule="evenodd" clip-rule="evenodd" d="M46 23C46 35.7025 35.7025 46 23 46C10.2975 46 0 35.7025 0 23C0 10.2975 10.2975 0 23 0C35.7025 0 46 10.2975 46 23ZM42 23C42 33.4934 33.4934 42 23 42C12.5066 42 4 33.4934 4 23C4 12.5066 12.5066 4 23 4C33.4934 4 42 12.5066 42 23Z" fill="#1E3A8A"/>
</svg>
