<svg width="48" height="40" viewBox="0 0 48 40" fill="none" xmlns="http://www.w3.org/2000/svg">
<path d="M42.691 3.88486L40.7041 4.11339L40.7041 4.1135L42.691 3.88486ZM39.7358 2.19607L40.5819 4.00827V4.00827L39.7358 2.19607ZM43.7985 13.5088L45.7855 13.2813L45.7854 13.2802L43.7985 13.5088ZM43.8127 13.8307L41.8135 13.7748L41.7975 14.3451L42.0849 14.838L43.8127 13.8307ZM30.5169 37.9478L30.4876 35.9481L30.4206 35.949L30.3537 35.9545L30.5169 37.9478ZM4.18731 13.8812L5.91515 14.8885L6.2025 14.3956L6.18653 13.8252L4.18731 13.8812ZM4.20151 13.5593L2.21462 13.3306L2.2145 13.3317L4.20151 13.5593ZM5.30898 3.93532L7.29587 4.16396L7.29588 4.16385L5.30898 3.93532ZM8.26423 2.24653L7.41811 4.05873L7.41811 4.05873L8.26423 2.24653ZM15.8148 5.7719L14.9687 7.58411L15.5883 7.87338L16.2552 7.72281L15.8148 5.7719ZM22.1 4.99686L22.1693 6.99566L22.1964 6.99472L22.2235 6.99304L22.1 4.99686ZM32.1852 5.72144L31.7448 7.67236L32.4117 7.82291L33.0313 7.53365L32.1852 5.72144ZM44.6779 3.65632C44.3615 0.904937 41.4592 -0.815871 38.8897 0.383867L40.5819 4.00827C40.6021 3.99882 40.6096 3.99997 40.6111 4.00005C40.6163 4.00033 40.6284 4.00237 40.6441 4.01139C40.6599 4.02042 40.6732 4.03293 40.6824 4.04667C40.6898 4.05764 40.6999 4.0766 40.7041 4.11339L44.6779 3.65632ZM45.7854 13.2802L44.6779 3.65622L40.7041 4.1135L41.8116 13.7374L45.7854 13.2802ZM45.8119 13.8867C45.8176 13.6851 45.8086 13.4828 45.7855 13.2813L41.8115 13.7364C41.8135 13.7537 41.8137 13.7664 41.8135 13.7748L45.8119 13.8867ZM42.0849 14.838C43.3003 16.9229 44 19.3588 44 21.9688H48C48 18.6349 47.1043 15.5059 45.5405 12.8235L42.0849 14.838ZM44 21.9688C44 29.6526 37.9374 35.8388 30.4876 35.9481L30.5463 39.9476C40.2407 39.8055 48 31.7798 48 21.9688H44ZM30.3537 35.9545C29.9861 35.9846 29.6141 36 29.2381 36V40C29.7233 40 30.2042 39.9801 30.6801 39.9412L30.3537 35.9545ZM29.2381 36H17.7143V40H29.2381V36ZM17.7143 36C10.1716 36 4 29.7724 4 22.0193H0C0 31.9179 7.89935 40 17.7143 40V36ZM4 22.0193C4 19.4093 4.69972 16.9734 5.91515 14.8885L2.45948 12.8739C0.895746 15.5563 0 18.6854 0 22.0193H4ZM6.18653 13.8252C6.1863 13.8168 6.18654 13.8041 6.18852 13.7868L2.2145 13.3317C2.19141 13.5333 2.18245 13.7355 2.1881 13.9372L6.18653 13.8252ZM6.1884 13.7879L7.29587 4.16396L3.32209 3.70668L2.21462 13.3306L6.1884 13.7879ZM7.29588 4.16385C7.30011 4.12706 7.31017 4.1081 7.31755 4.09713C7.32681 4.08339 7.34006 4.07088 7.35587 4.06185C7.37165 4.05283 7.38368 4.05079 7.38893 4.05051C7.39039 4.05043 7.39787 4.04928 7.41811 4.05873L9.11035 0.434327C6.54077 -0.765411 3.63854 0.955397 3.32208 3.70678L7.29588 4.16385ZM7.41811 4.05873L14.9687 7.58411L16.661 3.9597L9.11035 0.434326L7.41811 4.05873ZM16.2552 7.72281C17.9976 7.32948 20.0048 7.07064 22.1693 6.99566L22.0308 2.99806C19.6411 3.08084 17.3836 3.36743 15.3744 3.821L16.2552 7.72281ZM22.2235 6.99304C22.9714 6.94677 23.7397 6.92267 24.5238 6.92267V2.92267C23.6579 2.92267 22.8073 2.94928 21.9765 3.00068L22.2235 6.99304ZM24.5238 6.92267C27.1847 6.92267 29.6538 7.20036 31.7448 7.67236L32.6256 3.77053C30.2181 3.22709 27.4514 2.92267 24.5238 2.92267V6.92267ZM38.8897 0.383865L31.339 3.90924L33.0313 7.53365L40.5819 4.00827L38.8897 0.383865Z" fill="#1E3A8A"/>
</svg>
