<svg width="65" height="65" viewBox="0 0 65 65" fill="none" xmlns="http://www.w3.org/2000/svg">
<path d="M50.6729 18.3071L52.164 16.9837L50.673 18.3071C54.921 23.0931 54.7712 30.7776 50.3397 35.3951L39.4582 46.7334C37.193 49.0938 34.2812 50.166 31.4467 50.0327L31.413 50.0312L31.3792 50.0307C28.8553 49.9973 26.3116 49.0075 24.254 46.9837L13.1111 36.0236C13.1111 36.0236 13.1111 36.0236 13.111 36.0236C8.5908 31.5774 8.24243 23.9035 12.3916 18.9556L12.3917 18.9556C16.4645 14.0987 23.2881 13.7573 27.7166 18.1132L27.7166 18.1132L30.1412 20.498L31.5847 21.9177L32.9866 20.457L35.3359 18.0092L35.3359 18.0092C39.6808 13.4818 46.508 13.6146 50.6729 18.3071Z" stroke="#1E3A8A" stroke-width="4"/>
</svg>
