<svg width="49" height="41" viewBox="0 0 49 41" fill="none" xmlns="http://www.w3.org/2000/svg">
<path d="M43.6729 6.30713L45.164 4.9837L43.673 6.30715C47.921 11.0931 47.7712 18.7776 43.3397 23.3951L32.4582 34.7334C30.193 37.0938 27.2812 38.166 24.4467 38.0327L24.413 38.0312L24.3792 38.0307C21.8553 37.9973 19.3116 37.0075 17.254 34.9837L6.11107 24.0236C6.11106 24.0236 6.11105 24.0236 6.11104 24.0236C1.5908 19.5774 1.24243 11.9035 5.39165 6.95561L5.39166 6.95559C9.46446 2.09875 16.2881 1.75731 20.7166 6.1132L20.7166 6.11321L23.1412 8.49798L24.5847 9.91773L25.9866 8.45698L28.3359 6.0092L28.3359 6.00917C32.6808 1.48182 39.508 1.61458 43.6729 6.30713Z" stroke="#1E3A8A" stroke-width="4"/>
</svg>
