<svg width="53" height="45" viewBox="0 0 53 45" fill="none" xmlns="http://www.w3.org/2000/svg">
<path fill-rule="evenodd" clip-rule="evenodd" d="M7.68293 0C3.43976 0 0 3.43976 0 7.68292V37.3171C0 41.5602 3.43977 45 7.68293 45H28.5366C32.7798 45 36.2195 41.5602 36.2195 37.3171V7.68293C36.2195 3.43976 32.7797 0 28.5366 0H7.68293ZM28.5366 4.39024H7.68293C5.86443 4.39024 4.39024 5.86443 4.39024 7.68292V37.3171C4.39024 39.1356 5.86443 40.6098 7.68293 40.6098H28.5366C30.3551 40.6098 31.8293 39.1356 31.8293 37.3171V7.68293C31.8293 5.86443 30.3551 4.39024 28.5366 4.39024Z" fill="#1E3A8A"/>
<path fill-rule="evenodd" clip-rule="evenodd" d="M52.6829 7.6829C52.6829 4.0459 49.7346 1.09753 46.0976 1.09753C42.4606 1.09753 39.5122 4.0459 39.5122 7.6829V38.4146C39.5122 42.0516 42.4606 45 46.0976 45C49.7346 45 52.6829 42.0516 52.6829 38.4146V7.6829ZM48.2927 10.9756V7.6829C48.2927 6.47057 47.3099 5.48778 46.0976 5.48778C44.8852 5.48778 43.9025 6.47057 43.9025 7.6829V10.9756H48.2927ZM48.2927 15.3658H43.9025V38.4146C43.9025 39.6269 44.8852 40.6097 46.0976 40.6097C47.3099 40.6097 48.2927 39.6269 48.2927 38.4146V15.3658Z" fill="#1E3A8A"/>
</svg>
