<svg width="45" height="41" viewBox="0 0 45 41" fill="none" xmlns="http://www.w3.org/2000/svg">
<path d="M2 8.93104C2 10.8882 2.74838 12.6592 4.10704 13.9312C4.29353 14.1058 4.4893 14.269 4.69354 14.4206C3.39105 15.6098 2.6047 17.3364 2.6047 19.341V32.364C2.6047 36.1878 5.46585 39 9.31276 39C12.5479 39 15.1462 36.9612 15.8389 33.9798C16.105 35.1928 16.6923 36.2846 17.5701 37.1467C18.8031 38.3577 20.4905 39 22.3406 39C26.1197 39 29.0054 36.254 29.0054 32.4483V25.0728C29.0054 24.8462 29.0453 24.7395 29.0648 24.7019C29.0655 24.7016 29.0664 24.7013 29.0672 24.7009C29.0915 24.6917 29.1619 24.6705 29.2947 24.6705C29.4457 24.6705 29.5415 24.6851 29.595 24.6974C29.6239 24.7794 29.6703 24.9664 29.6703 25.3257V32.4483C29.6703 36.254 32.556 39 36.3351 39C38.1852 39 39.8726 38.3577 41.1056 37.1467C42.3402 35.9342 43 34.2675 43 32.4483V22.3755C43 19.4811 41.9974 16.924 40.1371 15.0884C38.2796 13.2555 35.7111 12.2835 32.8365 12.2835C30.6457 12.2835 28.415 12.9706 26.6119 14.304C25.4542 13.1508 23.8343 12.4943 22.0382 12.4943C18.8426 12.4943 16.3459 14.5739 15.7911 17.5324C15.4666 16.3011 14.8127 15.2393 13.9226 14.4276C14.1302 14.274 14.3291 14.1085 14.5185 13.9312C15.8771 12.6592 16.6255 10.8882 16.6255 8.93104C16.6255 6.97386 15.8771 5.2029 14.5185 3.93083C13.1678 2.6662 11.3301 2 9.31276 2C7.29539 2 5.45776 2.6662 4.10704 3.93083C2.74838 5.2029 2 6.97386 2 8.93104ZM29.0751 24.6854C29.0753 24.6855 29.074 24.6876 29.0706 24.6915C29.0733 24.6872 29.075 24.6853 29.0751 24.6854Z" stroke="#1E3A8A" stroke-width="4"/>
</svg>
