<svg width="65" height="64" viewBox="0 0 65 64" fill="none" xmlns="http://www.w3.org/2000/svg">
<path fill-rule="evenodd" clip-rule="evenodd" d="M32.5 64C50.4493 64 65 49.6731 65 32C65 14.3269 50.4493 0 32.5 0C14.5507 0 0 14.3269 0 32C0 49.6731 14.5507 64 32.5 64ZM18.8364 15C14.8782 15 12 18.479 12 22.3421V40.6579C12 44.521 14.8782 48 18.8364 48H47.1636C51.1218 48 54 44.521 54 40.6579V22.3421C54 18.479 51.1218 15 47.1636 15H18.8364ZM16 22.3421C16 22.3029 16.0005 22.264 16.0016 22.2254L26.4421 34.0115C29.9974 38.025 35.9524 37.9567 39.4299 33.877L49.9255 21.5641C49.9739 21.8094 50 22.0692 50 22.3421V40.6579C50 42.6955 48.5476 44 47.1636 44H18.8364C17.4524 44 16 42.6955 16 40.6579V22.3421ZM29.4363 31.3592L18.5093 19.0239C18.6183 19.0081 18.7275 19 18.8364 19H46.8551L36.3858 31.2822C34.4796 33.5184 31.3737 33.5463 29.4363 31.3592Z" fill="#1E3A8A"/>
</svg>
