<svg width="64" height="64" viewBox="0 0 64 64" fill="none" xmlns="http://www.w3.org/2000/svg">
<path d="M26 28.5C26 30.433 24.433 32 22.5 32C20.567 32 19 30.433 19 28.5C19 26.567 20.567 25 22.5 25C24.433 25 26 26.567 26 28.5Z" fill="#1E3A8A"/>
<path d="M45 28.5C45 30.433 43.433 32 41.5 32C39.567 32 38 30.433 38 28.5C38 26.567 39.567 25 41.5 25C43.433 25 45 26.567 45 28.5Z" fill="#1E3A8A"/>
<path d="M29.5617 36.7506C28.8717 35.8881 27.6131 35.7482 26.7506 36.4383C25.8881 37.1283 25.7482 38.3869 26.4383 39.2494C29.2896 42.8135 34.7104 42.8135 37.5617 39.2494C38.2518 38.3869 38.1119 37.1283 37.2494 36.4383C36.3869 35.7482 35.1283 35.8881 34.4383 36.7506C33.1882 38.3131 30.8118 38.3131 29.5617 36.7506Z" fill="#1E3A8A"/>
<path fill-rule="evenodd" clip-rule="evenodd" d="M32 55C44.7025 55 55 44.7025 55 32C55 19.2975 44.7025 9 32 9C19.2975 9 9 19.2975 9 32C9 44.7025 19.2975 55 32 55ZM32 51C42.4934 51 51 42.4934 51 32C51 21.5066 42.4934 13 32 13C21.5066 13 13 21.5066 13 32C13 42.4934 21.5066 51 32 51Z" fill="#1E3A8A"/>
</svg>
