<svg width="46" height="46" viewBox="0 0 46 46" fill="none" xmlns="http://www.w3.org/2000/svg">
<path d="M17 19.5C17 21.433 15.433 23 13.5 23C11.567 23 10 21.433 10 19.5C10 17.567 11.567 16 13.5 16C15.433 16 17 17.567 17 19.5Z" fill="#1E3A8A"/>
<path d="M36 19.5C36 21.433 34.433 23 32.5 23C30.567 23 29 21.433 29 19.5C29 17.567 30.567 16 32.5 16C34.433 16 36 17.567 36 19.5Z" fill="#1E3A8A"/>
<path d="M20.5617 27.7506C19.8717 26.8881 18.6131 26.7482 17.7506 27.4383C16.8881 28.1283 16.7482 29.3869 17.4383 30.2494C20.2896 33.8135 25.7104 33.8135 28.5617 30.2494C29.2518 29.3869 29.1119 28.1283 28.2494 27.4383C27.3869 26.7482 26.1283 26.8881 25.4383 27.7506C24.1882 29.3131 21.8118 29.3131 20.5617 27.7506Z" fill="#1E3A8A"/>
<path fill-rule="evenodd" clip-rule="evenodd" d="M23 46C35.7025 46 46 35.7025 46 23C46 10.2975 35.7025 0 23 0C10.2975 0 0 10.2975 0 23C0 35.7025 10.2975 46 23 46ZM23 42C33.4934 42 42 33.4934 42 23C42 12.5066 33.4934 4 23 4C12.5066 4 4 12.5066 4 23C4 33.4934 12.5066 42 23 42Z" fill="#1E3A8A"/>
</svg>
