<svg width="45" height="40" viewBox="0 0 45 40" fill="none" xmlns="http://www.w3.org/2000/svg">
<path d="M19.2893 3.67419C20.8887 1.5218 24.1113 1.5218 25.7107 3.67419L29.628 8.94613C30.7669 10.4788 32.4164 11.5536 34.2786 11.9763L39.8478 13.2404C42.8699 13.9263 43.9978 17.64 41.8676 19.8907L39.123 22.7906C37.5904 24.4099 36.8031 26.5954 36.9509 28.8201L37.2497 33.3171C37.4385 36.159 34.681 38.2821 31.9818 37.373L25.0534 35.0396C23.3969 34.4817 21.6031 34.4817 19.9466 35.0396L13.0182 37.373C10.319 38.2821 7.56149 36.159 7.75032 33.3171L8.04912 28.8201C8.19695 26.5954 7.40964 24.4099 5.87701 22.7906L3.13244 19.8907C1.00223 17.64 2.13009 13.9263 5.15218 13.2404L10.7214 11.9763C12.5836 11.5536 14.2331 10.4788 15.372 8.94613L19.2893 3.67419Z" stroke="#1E3A8A" stroke-width="4"/>
</svg>
