<svg width="64" height="64" viewBox="0 0 64 64" fill="none" xmlns="http://www.w3.org/2000/svg">
<path d="M28.2893 13.6742C29.8887 11.5218 33.1113 11.5218 34.7107 13.6742L38.628 18.9461C39.7669 20.4788 41.4164 21.5536 43.2786 21.9763L48.8478 23.2404C51.8699 23.9263 52.9978 27.64 50.8676 29.8907L48.123 32.7906C46.5904 34.4099 45.8031 36.5954 45.9509 38.8201L46.2497 43.3171C46.4385 46.159 43.681 48.2821 40.9818 47.373L34.0534 45.0396C32.3969 44.4817 30.6031 44.4817 28.9466 45.0396L22.0182 47.373C19.319 48.2821 16.5615 46.159 16.7503 43.3171L17.0491 38.8201C17.1969 36.5954 16.4096 34.4099 14.877 32.7906L12.1324 29.8907C10.0022 27.64 11.1301 23.9263 14.1522 23.2404L19.7214 21.9763C21.5836 21.5536 23.2331 20.4788 24.372 18.9461L28.2893 13.6742Z" stroke="#1E3A8A" stroke-width="4"/>
</svg>
