<svg width="232" height="96" viewBox="0 0 232 96" fill="none" xmlns="http://www.w3.org/2000/svg">
<g clip-path="url(#clip0_2065_205)">
<mask id="mask0_2065_205" style="mask-type:luminance" maskUnits="userSpaceOnUse" x="0" y="0" width="232" height="96">
<path d="M232 0H0V96H232V0Z" fill="white"/>
</mask>
<g mask="url(#mask0_2065_205)">
<g filter="url(#filter0_d_2065_205)">
<path d="M9.38746 37.0478C4.00536 36.304 2.17339 29.959 6.82023 27.1435C11.8496 24.0962 17.7203 21.2484 24.3328 18.6583C36.4912 13.8958 50.8893 10.1093 66.6042 7.54168C82.319 4.97401 99.0038 3.68177 115.589 3.7478C132.174 3.81382 148.294 5.23666 162.915 7.92508C177.536 10.6135 190.336 14.5082 200.493 19.3595C210.651 24.2109 217.942 29.9118 221.901 36.0968C225.859 42.2818 226.396 48.8146 223.478 55.2762C220.758 61.3001 215.091 67.1383 206.804 72.4663C205.63 73.221 204.196 73.441 202.837 73.1224C198.186 72.0317 197.101 65.6042 200.442 62.1906C202.874 59.7065 204.695 57.1455 205.87 54.5437C208.351 49.0497 207.894 43.4951 204.528 38.2362C201.163 32.9773 194.963 28.13 186.327 24.0051C177.69 19.8802 166.807 16.5687 154.375 14.2828C141.944 11.997 128.238 10.7872 114.136 10.731C100.034 10.6749 85.8474 11.7736 72.4857 13.9568C59.1239 16.14 46.8817 19.3595 36.5438 23.4089C27.5664 26.9254 20.197 31.0003 14.7803 35.4327C13.2656 36.6721 11.3262 37.3158 9.38746 37.0478Z" fill="#FF69B4"/>
<path d="M7.07938 27.5711C12.0801 24.5412 17.9243 21.7055 24.5152 19.1238C36.6346 14.3766 50.9976 10.5983 66.6849 8.03514C82.3713 5.47213 99.0285 4.18188 115.587 4.2478C132.146 4.31372 148.236 5.73436 162.825 8.41685C177.415 11.0997 190.17 14.9833 200.278 19.8107C210.393 24.6417 217.592 30.2912 221.479 36.3663C225.35 42.4151 225.868 48.7694 223.022 55.0704C220.357 60.9729 214.777 66.7458 206.534 72.0457C205.48 72.7234 204.185 72.9249 202.951 72.6356C200.856 72.1442 199.538 70.4506 199.133 68.4293C198.726 66.4019 199.258 64.1154 200.799 62.5404C203.263 60.0236 205.122 57.4152 206.326 54.7495C208.879 49.0948 208.402 43.3619 204.95 37.9667C201.514 32.5979 195.221 27.6993 186.542 23.5539C177.855 19.4051 166.928 16.0825 154.466 13.7911C142.002 11.4993 128.266 10.2873 114.138 10.231C100.009 10.1748 85.7953 11.2755 72.4051 13.4634C59.0159 15.6511 46.7385 18.8786 36.3616 22.9433C27.3523 26.4723 19.9328 30.5706 14.4637 35.0457C13.0425 36.2087 11.2396 36.7991 9.45597 36.5525C6.95827 36.2073 5.32175 34.5742 4.82567 32.7418C4.3333 30.9232 4.94885 28.862 7.07938 27.5711Z" stroke="#1E3A8A"/>
</g>
<g filter="url(#filter1_d_2065_205)">
<path d="M194.407 61.4268C195.063 57.039 200.684 55.6157 203.349 59.1625L205.713 62.3076C206.868 63.8443 208.801 64.583 210.686 64.2077L214.057 63.5365C218.636 62.625 221.855 67.9287 218.933 71.5696L217.325 73.5736C216.032 75.1856 215.863 77.4273 216.901 79.2144L218.343 81.6963C220.618 85.6133 216.929 90.295 212.589 88.9986L208.48 87.7714C206.718 87.2452 204.809 87.7284 203.51 89.0298L200.481 92.0644C197.281 95.2703 191.808 92.9086 191.945 88.3808L192.031 85.5118C192.094 83.446 190.879 81.5546 188.974 80.7525L186.606 79.7554C182.304 77.9437 182.611 71.7471 187.071 70.3698L190.356 69.3557C192.192 68.7886 193.541 67.2188 193.825 65.3177L194.407 61.4268Z" fill="#FFD700"/>
<path d="M202.55 59.7633L204.913 62.9084C206.299 64.7524 208.619 65.6388 210.882 65.1884L214.253 64.5173C217.915 63.7881 220.491 68.031 218.153 70.9438L216.545 72.9478C214.993 74.8821 214.791 77.5721 216.037 79.7167L217.478 82.1986C219.299 85.3322 216.347 89.0776 212.875 88.0404L208.766 86.8133C206.652 86.1818 204.362 86.7617 202.803 88.3233L199.773 91.3579C197.213 93.9226 192.835 92.0332 192.944 88.411L193.031 85.5421C193.106 83.0631 191.648 80.7934 189.362 79.8309L186.994 78.8338C183.552 77.3844 183.798 72.4271 187.366 71.3253L190.651 70.3112C192.855 69.6307 194.473 67.7469 194.814 65.4655L195.396 61.5747C195.921 58.0645 200.418 56.9258 202.55 59.7633Z" stroke="#142E78" stroke-width="2"/>
</g>
<g filter="url(#filter2_d_2065_205)">
<path d="M210.635 48.8564C211.714 47.1655 214.337 47.6203 214.784 49.5759C214.969 50.3848 215.604 51.0288 216.413 51.2124L216.672 51.2713C218.549 51.6974 218.87 54.2353 217.158 55.1154C216.4 55.505 215.961 56.3282 216.052 57.1756C216.255 59.0799 214.027 60.28 212.575 59.0316L212.245 58.7486C211.608 58.2006 210.721 58.0468 209.936 58.348L209.531 58.5037C207.743 59.19 206.049 57.3097 206.882 55.5852C207.253 54.8178 207.116 53.8947 206.534 53.2727C205.218 51.8676 206.375 49.5859 208.286 49.8168L208.55 49.8487C209.374 49.9482 210.188 49.5558 210.635 48.8564Z" fill="#FFD700"/>
<path d="M216.302 51.7L216.561 51.7589C217.983 52.0816 218.226 54.0041 216.93 54.6707C215.986 55.1557 215.442 56.1779 215.554 57.2287C215.711 58.6973 213.998 59.5959 212.901 58.6524L212.571 58.3694C211.794 57.7015 210.713 57.5141 209.757 57.8813L209.351 58.0369C208 58.5556 206.69 57.1326 207.332 55.8027C207.792 54.8511 207.624 53.7054 206.899 52.9309C205.902 51.8666 206.778 50.1383 208.226 50.3132L208.49 50.3451C209.508 50.4681 210.508 49.984 211.056 49.1254C211.897 47.8085 213.948 48.1642 214.296 49.6873C214.523 50.6803 215.302 51.4731 216.302 51.7Z" stroke="#142E78"/>
</g>
<g filter="url(#filter3_d_2065_205)">
<path d="M28.9131 29.2291C28.9131 25.8791 31.3131 23.4791 34.6131 23.4791H46.0131C53.1631 23.4791 57.7631 27.1291 57.7631 32.7291C57.7631 35.8791 56.2131 38.4791 53.5131 40.2791C57.1131 41.8291 59.1631 44.8291 59.1631 48.5791C59.1631 54.2291 54.2131 58.4791 47.0131 58.4791H34.6131C31.3131 58.4791 28.9131 56.0791 28.9131 52.7291V29.2291ZM43.3631 36.7291C45.4631 36.7291 46.2631 35.7791 46.2631 34.4291C46.2631 33.0791 45.4631 32.0791 43.3631 32.0791H40.3631V36.7291H43.3631ZM40.3631 50.0291H44.7131C46.8631 50.0291 47.8631 48.7791 47.8631 47.3291C47.8631 45.8791 46.8631 44.6291 44.7131 44.6291H40.3631V50.0291ZM87.3346 23.2791C90.6346 23.2791 92.9346 25.6791 92.9346 28.9791V43.6791C92.9346 52.9791 86.4846 58.9791 76.7346 58.9791C67.0346 58.9791 60.9346 53.3291 60.9346 44.0291V28.9291C60.9346 25.5791 63.3346 23.1791 66.6846 23.1791C70.0846 23.1791 72.5346 25.5791 72.5346 28.9291V43.4791C72.5346 46.6791 74.2846 48.4291 77.1346 48.4291C79.9346 48.4291 81.6846 46.6791 81.6846 43.4791V28.9791C81.6846 25.6791 84.0846 23.2791 87.3346 23.2791ZM102.596 23.2291C105.946 23.2291 108.396 25.6291 108.396 29.0791V52.8791C108.396 56.3291 105.946 58.7291 102.596 58.7291C99.1463 58.7291 96.6963 56.3291 96.6963 52.8791V29.0791C96.6963 25.6291 99.1463 23.2291 102.596 23.2291ZM118.809 23.2291C122.159 23.2291 124.609 25.6291 124.609 29.0791V52.8791C124.609 56.3291 122.159 58.7291 118.809 58.7291C115.359 58.7291 112.909 56.3291 112.909 52.8791V29.0791C112.909 25.6291 115.359 23.2291 118.809 23.2291ZM128.872 30.5791C128.872 26.3791 131.972 23.2291 136.322 23.2291C138.972 23.2291 141.272 24.5791 142.772 26.9291L151.272 40.4291V28.7791C151.272 25.5291 153.572 23.2291 156.872 23.2291C160.122 23.2291 162.372 25.5291 162.372 28.7791V51.7791C162.372 55.7791 159.422 58.7291 155.372 58.7291C152.772 58.7291 150.472 57.4291 148.972 55.0291L139.972 40.7291V53.1291C139.972 56.4291 137.722 58.7291 134.472 58.7291C131.122 58.7291 128.872 56.4291 128.872 53.1291V30.5791ZM163.724 28.7791C163.724 25.5291 166.124 23.2291 169.474 23.2291C172.074 23.2291 173.624 24.5791 174.474 26.3291L178.924 35.4791L183.274 26.6291C184.124 24.8791 185.574 23.2291 188.174 23.2291C191.274 23.2291 193.674 25.3291 193.674 28.5791C193.674 29.9291 193.124 31.1791 192.524 32.2791L184.374 46.4791V52.9791C184.374 56.3291 181.924 58.7291 178.624 58.7291C175.324 58.7291 172.924 56.3291 172.924 52.9791V46.4791L164.624 31.9791C164.074 31.0791 163.724 29.9291 163.724 28.7791Z" fill="white"/>
<mask id="mask1_2065_205" style="mask-type:luminance" maskUnits="userSpaceOnUse" x="25" y="19" width="172" height="44">
<path d="M197 19.4791H25V62.4791H197V19.4791Z" fill="white"/>
<path d="M28.9131 29.2291C28.9131 25.8791 31.3131 23.4791 34.6131 23.4791H46.0131C53.1631 23.4791 57.7631 27.1291 57.7631 32.7291C57.7631 35.8791 56.2131 38.4791 53.5131 40.2791C57.1131 41.8291 59.1631 44.8291 59.1631 48.5791C59.1631 54.2291 54.2131 58.4791 47.0131 58.4791H34.6131C31.3131 58.4791 28.9131 56.0791 28.9131 52.7291V29.2291ZM43.3631 36.7291C45.4631 36.7291 46.2631 35.7791 46.2631 34.4291C46.2631 33.0791 45.4631 32.0791 43.3631 32.0791H40.3631V36.7291H43.3631ZM40.3631 50.0291H44.7131C46.8631 50.0291 47.8631 48.7791 47.8631 47.3291C47.8631 45.8791 46.8631 44.6291 44.7131 44.6291H40.3631V50.0291ZM87.3346 23.2791C90.6346 23.2791 92.9346 25.6791 92.9346 28.9791V43.6791C92.9346 52.9791 86.4846 58.9791 76.7346 58.9791C67.0346 58.9791 60.9346 53.3291 60.9346 44.0291V28.9291C60.9346 25.5791 63.3346 23.1791 66.6846 23.1791C70.0846 23.1791 72.5346 25.5791 72.5346 28.9291V43.4791C72.5346 46.6791 74.2846 48.4291 77.1346 48.4291C79.9346 48.4291 81.6846 46.6791 81.6846 43.4791V28.9791C81.6846 25.6791 84.0846 23.2791 87.3346 23.2791ZM102.596 23.2291C105.946 23.2291 108.396 25.6291 108.396 29.0791V52.8791C108.396 56.3291 105.946 58.7291 102.596 58.7291C99.1463 58.7291 96.6963 56.3291 96.6963 52.8791V29.0791C96.6963 25.6291 99.1463 23.2291 102.596 23.2291ZM118.809 23.2291C122.159 23.2291 124.609 25.6291 124.609 29.0791V52.8791C124.609 56.3291 122.159 58.7291 118.809 58.7291C115.359 58.7291 112.909 56.3291 112.909 52.8791V29.0791C112.909 25.6291 115.359 23.2291 118.809 23.2291ZM128.872 30.5791C128.872 26.3791 131.972 23.2291 136.322 23.2291C138.972 23.2291 141.272 24.5791 142.772 26.9291L151.272 40.4291V28.7791C151.272 25.5291 153.572 23.2291 156.872 23.2291C160.122 23.2291 162.372 25.5291 162.372 28.7791V51.7791C162.372 55.7791 159.422 58.7291 155.372 58.7291C152.772 58.7291 150.472 57.4291 148.972 55.0291L139.972 40.7291V53.1291C139.972 56.4291 137.722 58.7291 134.472 58.7291C131.122 58.7291 128.872 56.4291 128.872 53.1291V30.5791ZM163.724 28.7791C163.724 25.5291 166.124 23.2291 169.474 23.2291C172.074 23.2291 173.624 24.5791 174.474 26.3291L178.924 35.4791L183.274 26.6291C184.124 24.8791 185.574 23.2291 188.174 23.2291C191.274 23.2291 193.674 25.3291 193.674 28.5791C193.674 29.9291 193.124 31.1791 192.524 32.2791L184.374 46.4791V52.9791C184.374 56.3291 181.924 58.7291 178.624 58.7291C175.324 58.7291 172.924 56.3291 172.924 52.9791V46.4791L164.624 31.9791C164.074 31.0791 163.724 29.9291 163.724 28.7791Z" fill="black"/>
</mask>
<g mask="url(#mask1_2065_205)">
<path d="M53.5131 40.2791L51.849 37.783L47.2502 40.8488L52.3267 43.0346L53.5131 40.2791ZM40.3631 32.0791V29.0791H37.3631V32.0791H40.3631ZM40.3631 36.7291H37.3631V39.7291H40.3631V36.7291ZM40.3631 50.0291H37.3631V53.0291H40.3631V50.0291ZM40.3631 44.6291V41.6291H37.3631V44.6291H40.3631ZM31.9131 29.2291C31.9131 27.5185 32.9873 26.4791 34.6131 26.4791V20.4791C29.6389 20.4791 25.9131 24.2397 25.9131 29.2291H31.9131ZM34.6131 26.4791H46.0131V20.4791H34.6131V26.4791ZM46.0131 26.4791C49.1089 26.4791 51.3319 27.2711 52.7111 28.3593C54.0221 29.3937 54.7631 30.8326 54.7631 32.7291H60.7631C60.7631 29.0257 59.2041 25.8396 56.4276 23.6489C53.7193 21.5121 50.0672 20.4791 46.0131 20.4791V26.4791ZM54.7631 32.7291C54.7631 34.7535 53.8218 36.4677 51.849 37.783L55.1772 42.7753C58.6043 40.4905 60.7631 37.0048 60.7631 32.7291H54.7631ZM52.3267 43.0346C54.8975 44.1414 56.1631 46.1032 56.1631 48.5791H62.1631C62.1631 43.555 59.3287 39.5168 54.6995 37.5237L52.3267 43.0346ZM56.1631 48.5791C56.1631 52.0657 53.1129 55.4791 47.0131 55.4791V61.4791C55.3133 61.4791 62.1631 56.3926 62.1631 48.5791H56.1631ZM47.0131 55.4791H34.6131V61.4791H47.0131V55.4791ZM34.6131 55.4791C32.9873 55.4791 31.9131 54.4397 31.9131 52.7291H25.9131C25.9131 57.7185 29.6389 61.4791 34.6131 61.4791V55.4791ZM31.9131 52.7291V29.2291H25.9131V52.7291H31.9131ZM43.3631 39.7291C44.8087 39.7291 46.3635 39.4082 47.5804 38.3393C48.8651 37.2109 49.2631 35.7054 49.2631 34.4291H43.2631C43.2631 34.476 43.2556 34.4095 43.3071 34.2764C43.3645 34.1278 43.4702 33.9636 43.6208 33.8314C43.7639 33.7057 43.869 33.6775 43.8468 33.6841C43.8157 33.6934 43.6706 33.7291 43.3631 33.7291V39.7291ZM49.2631 34.4291C49.2631 33.1584 48.8698 31.6609 47.6141 30.524C46.4052 29.4294 44.8445 29.0791 43.3631 29.0791V35.0791C43.9817 35.0791 43.871 35.2288 43.5871 34.9718C43.4465 34.8445 43.3516 34.6913 43.3011 34.5585C43.2557 34.4392 43.2631 34.3827 43.2631 34.4291H49.2631ZM43.3631 29.0791H40.3631V35.0791H43.3631V29.0791ZM37.3631 32.0791V36.7291H43.3631V32.0791H37.3631ZM40.3631 39.7291H43.3631V33.7291H40.3631V39.7291ZM40.3631 53.0291H44.7131V47.0291H40.3631V53.0291ZM44.7131 53.0291C46.3727 53.0291 47.9649 52.5359 49.1626 51.3959C50.3602 50.2561 50.8631 48.7521 50.8631 47.3291H44.8631C44.8631 47.3478 44.86 47.3187 44.8845 47.2567C44.911 47.19 44.9588 47.1138 45.026 47.0498C45.0934 46.9857 45.1383 46.9735 45.1136 46.9823C45.0834 46.9929 44.9618 47.0291 44.7131 47.0291V53.0291ZM50.8631 47.3291C50.8631 45.9062 50.3602 44.4021 49.1626 43.2623C47.9649 42.1223 46.3727 41.6291 44.7131 41.6291V47.6291C44.9618 47.6291 45.0834 47.6653 45.1136 47.676C45.1383 47.6847 45.0934 47.6725 45.026 47.6084C44.9588 47.5444 44.911 47.4683 44.8845 47.4015C44.86 47.3395 44.8631 47.3104 44.8631 47.3291H50.8631ZM44.7131 41.6291H40.3631V47.6291H44.7131V41.6291ZM37.3631 44.6291V50.0291H43.3631V44.6291H37.3631ZM87.3346 26.2791C88.9075 26.2791 89.9346 27.2648 89.9346 28.9791H95.9346C95.9346 24.0934 92.3617 20.2791 87.3346 20.2791V26.2791ZM89.9346 28.9791V43.6791H95.9346V28.9791H89.9346ZM89.9346 43.6791C89.9346 47.6064 88.5916 50.6037 86.4356 52.6312C84.2609 54.6763 80.9953 55.9791 76.7346 55.9791V61.9791C82.2239 61.9791 87.0583 60.2819 90.546 57.0021C94.0526 53.7045 95.9346 49.0518 95.9346 43.6791H89.9346ZM76.7346 55.9791C72.4586 55.9791 69.3092 54.741 67.2525 52.8064C65.2183 50.8929 63.9346 48.0005 63.9346 44.0291H57.9346C57.9346 49.3577 59.7009 53.9403 63.1416 57.1768C66.5599 60.3922 71.3105 61.9791 76.7346 61.9791V55.9791ZM63.9346 44.0291V28.9291H57.9346V44.0291H63.9346ZM63.9346 28.9291C63.9346 27.236 64.9914 26.1791 66.6846 26.1791V20.1791C61.6777 20.1791 57.9346 23.9223 57.9346 28.9291H63.9346ZM66.6846 26.1791C68.4795 26.1791 69.5346 27.2873 69.5346 28.9291H75.5346C75.5346 23.8709 71.6896 20.1791 66.6846 20.1791V26.1791ZM69.5346 28.9291V43.4791H75.5346V28.9291H69.5346ZM69.5346 43.4791C69.5346 45.6094 70.123 47.6716 71.5884 49.2178C73.0733 50.7845 75.0866 51.4291 77.1346 51.4291V45.4291C76.3325 45.4291 76.0459 45.1987 75.9433 45.0904C75.8211 44.9616 75.5346 44.5489 75.5346 43.4791H69.5346ZM77.1346 51.4291C79.172 51.4291 81.1723 50.7755 82.6451 49.2092C84.0964 47.6658 84.6846 45.6094 84.6846 43.4791H78.6846C78.6846 44.5488 78.3978 44.9674 78.274 45.099C78.1718 45.2077 77.8971 45.4291 77.1346 45.4291V51.4291ZM84.6846 43.4791V28.9791H78.6846V43.4791H84.6846ZM84.6846 28.9791C84.6846 27.3184 85.7589 26.2791 87.3346 26.2791V20.2791C82.4102 20.2791 78.6846 24.0398 78.6846 28.9791H84.6846ZM102.596 26.2291C104.289 26.2291 105.396 27.286 105.396 29.0791H111.396C111.396 23.9723 107.603 20.2291 102.596 20.2291V26.2291ZM105.396 29.0791V52.8791H111.396V29.0791H105.396ZM105.396 52.8791C105.396 54.6723 104.289 55.7291 102.596 55.7291V61.7291C107.603 61.7291 111.396 57.986 111.396 52.8791H105.396ZM102.596 55.7291C101.583 55.7291 100.89 55.3877 100.461 54.9638C100.035 54.5433 99.6963 53.8719 99.6963 52.8791H93.6963C93.6963 55.3364 94.5821 57.5899 96.244 59.2319C97.9026 60.8706 100.16 61.7291 102.596 61.7291V55.7291ZM99.6963 52.8791V29.0791H93.6963V52.8791H99.6963ZM99.6963 29.0791C99.6963 28.0864 100.035 27.4149 100.461 26.9944C100.89 26.5706 101.583 26.2291 102.596 26.2291V20.2291C100.16 20.2291 97.9026 21.0877 96.244 22.7263C94.5821 24.3683 93.6963 26.6219 93.6963 29.0791H99.6963ZM118.809 26.2291C120.502 26.2291 121.609 27.286 121.609 29.0791H127.609C127.609 23.9723 123.816 20.2291 118.809 20.2291V26.2291ZM121.609 29.0791V52.8791H127.609V29.0791H121.609ZM121.609 52.8791C121.609 54.6723 120.502 55.7291 118.809 55.7291V61.7291C123.816 61.7291 127.609 57.986 127.609 52.8791H121.609ZM118.809 55.7291C117.795 55.7291 117.103 55.3877 116.674 54.9638C116.248 54.5433 115.909 53.8719 115.909 52.8791H109.909C109.909 55.3364 110.795 57.5899 112.457 59.2319C114.115 60.8706 116.373 61.7291 118.809 61.7291V55.7291ZM115.909 52.8791V29.0791H109.909V52.8791H115.909ZM115.909 29.0791C115.909 28.0864 116.248 27.4149 116.674 26.9944C117.103 26.5706 117.795 26.2291 118.809 26.2291V20.2291C116.373 20.2291 114.115 21.0877 112.457 22.7263C110.795 24.3683 109.909 26.6219 109.909 29.0791H115.909ZM142.772 26.9291L145.311 25.3307L145.306 25.3228L145.301 25.315L142.772 26.9291ZM151.272 40.4291L148.733 42.0276L154.272 50.8243V40.4291H151.272ZM148.972 55.0291L151.516 53.4391L151.511 53.4312L148.972 55.0291ZM139.972 40.7291L142.511 39.1312L136.972 30.3303V40.7291H139.972ZM131.872 30.5791C131.872 28.0494 133.615 26.2291 136.322 26.2291V20.2291C130.329 20.2291 125.872 24.7089 125.872 30.5791H131.872ZM136.322 26.2291C137.849 26.2291 139.239 26.9699 140.243 28.5432L145.301 25.315C143.305 22.1883 140.095 20.2291 136.322 20.2291V26.2291ZM140.233 28.5276L148.733 42.0276L153.811 38.8307L145.311 25.3307L140.233 28.5276ZM154.272 40.4291V28.7791H148.272V40.4291H154.272ZM154.272 28.7791C154.272 27.8816 154.577 27.2831 154.949 26.9134C155.322 26.5431 155.937 26.2291 156.872 26.2291V20.2291C154.507 20.2291 152.322 21.0652 150.72 22.6573C149.117 24.2502 148.272 26.4267 148.272 28.7791H154.272ZM156.872 26.2291C157.767 26.2291 158.35 26.5324 158.706 26.8931C159.066 27.2574 159.372 27.8616 159.372 28.7791H165.372C165.372 26.4466 164.553 24.2759 162.976 22.6777C161.394 21.0759 159.227 20.2291 156.872 20.2291V26.2291ZM159.372 28.7791V51.7791H165.372V28.7791H159.372ZM159.372 51.7791C159.372 54.108 157.779 55.7291 155.372 55.7291V61.7291C161.065 61.7291 165.372 57.4502 165.372 51.7791H159.372ZM155.372 55.7291C153.876 55.7291 152.506 55.023 151.516 53.4391L146.428 56.6191C148.438 59.8352 151.668 61.7291 155.372 61.7291V55.7291ZM151.511 53.4312L142.511 39.1312L137.433 42.3271L146.433 56.6271L151.511 53.4312ZM136.972 40.7291V53.1291H142.972V40.7291H136.972ZM136.972 53.1291C136.972 54.0835 136.658 54.7003 136.299 55.0657C135.945 55.4266 135.367 55.7291 134.472 55.7291V61.7291C136.828 61.7291 138.999 60.8816 140.582 59.2675C142.161 57.658 142.972 55.4747 142.972 53.1291H136.972ZM134.472 55.7291C133.503 55.7291 132.9 55.4102 132.544 55.0521C132.185 54.691 131.872 54.0825 131.872 53.1291H125.872C125.872 55.4758 126.684 57.6672 128.288 59.2812C129.894 60.8981 132.091 61.7291 134.472 61.7291V55.7291ZM131.872 53.1291V30.5791H125.872V53.1291H131.872ZM174.474 26.3291L171.775 27.6398L171.776 27.6412L174.474 26.3291ZM178.924 35.4791L176.226 36.7912L178.91 42.3091L181.616 36.8025L178.924 35.4791ZM183.274 26.6291L185.966 27.9525L185.973 27.9398L183.274 26.6291ZM192.524 32.2791L195.126 33.7725L195.142 33.7442L195.158 33.7157L192.524 32.2791ZM184.374 46.4791L181.772 44.9858L181.374 45.6794V46.4791H184.374ZM172.924 46.4791H175.924V45.6812L175.528 44.9888L172.924 46.4791ZM164.624 31.9791L167.228 30.4888L167.206 30.4515L167.184 30.4148L164.624 31.9791ZM166.724 28.7791C166.724 27.291 167.674 26.2291 169.474 26.2291V20.2291C164.574 20.2291 160.724 23.7672 160.724 28.7791H166.724ZM169.474 26.2291C170.228 26.2291 170.666 26.4155 170.944 26.6044C171.243 26.8072 171.53 27.1336 171.775 27.6398L177.173 25.0184C175.9 22.3987 173.394 20.2291 169.474 20.2291V26.2291ZM171.776 27.6412L176.226 36.7912L181.622 34.1671L177.172 25.0171L171.776 27.6412ZM181.616 36.8025L185.966 27.9525L180.582 25.3058L176.232 34.1558L181.616 36.8025ZM185.973 27.9398C186.278 27.3111 186.608 26.8813 186.935 26.6209C187.211 26.4014 187.569 26.2291 188.174 26.2291V20.2291C183.943 20.2291 181.675 23.0547 180.575 25.3184L185.973 27.9398ZM188.174 26.2291C189.045 26.2291 189.657 26.518 190.028 26.8679C190.379 27.1991 190.674 27.7305 190.674 28.5791H196.674C196.674 26.1778 195.769 24.0342 194.145 22.5028C192.541 20.9903 190.403 20.2291 188.174 20.2291V26.2291ZM190.674 28.5791C190.674 29.1459 190.436 29.8428 189.89 30.8426L195.158 33.7157C195.812 32.5155 196.674 30.7124 196.674 28.5791H190.674ZM189.922 30.7858L181.772 44.9858L186.976 47.9725L195.126 33.7725L189.922 30.7858ZM181.374 46.4791V52.9791H187.374V46.4791H181.374ZM181.374 52.9791C181.374 54.655 180.284 55.7291 178.624 55.7291V61.7291C183.564 61.7291 187.374 58.0033 187.374 52.9791H181.374ZM178.624 55.7291C176.998 55.7291 175.924 54.6897 175.924 52.9791H169.924C169.924 57.9685 173.65 61.7291 178.624 61.7291V55.7291ZM175.924 52.9791V46.4791H169.924V52.9791H175.924ZM175.528 44.9888L167.228 30.4888L162.02 33.4695L170.32 47.9695L175.528 44.9888ZM167.184 30.4148C166.91 29.966 166.724 29.3543 166.724 28.7791H160.724C160.724 30.5039 161.238 32.1923 162.064 33.5435L167.184 30.4148Z" fill="#142E78"/>
</g>
</g>
</g>
</g>
<defs>
<filter id="filter0_d_2065_205" x="4.16577" y="3.74539" width="225.163" height="73.5185" filterUnits="userSpaceOnUse" color-interpolation-filters="sRGB">
<feFlood flood-opacity="0" result="BackgroundImageFix"/>
<feColorMatrix in="SourceAlpha" type="matrix" values="0 0 0 0 0 0 0 0 0 0 0 0 0 0 0 0 0 0 127 0" result="hardAlpha"/>
<feOffset dx="4" dy="4"/>
<feComposite in2="hardAlpha" operator="out"/>
<feColorMatrix type="matrix" values="0 0 0 0 0.0784314 0 0 0 0 0.180392 0 0 0 0 0.470588 0 0 0 1 0"/>
<feBlend mode="normal" in2="BackgroundImageFix" result="effect1_dropShadow_2065_205"/>
<feBlend mode="normal" in="SourceGraphic" in2="effect1_dropShadow_2065_205" result="shape"/>
</filter>
<filter id="filter1_d_2065_205" x="183.546" y="57.1615" width="37.5054" height="37.3817" filterUnits="userSpaceOnUse" color-interpolation-filters="sRGB">
<feFlood flood-opacity="0" result="BackgroundImageFix"/>
<feColorMatrix in="SourceAlpha" type="matrix" values="0 0 0 0 0 0 0 0 0 0 0 0 0 0 0 0 0 0 127 0" result="hardAlpha"/>
<feOffset dx="1" dy="1"/>
<feComposite in2="hardAlpha" operator="out"/>
<feColorMatrix type="matrix" values="0 0 0 0 0.0784314 0 0 0 0 0.180392 0 0 0 0 0.470588 0 0 0 1 0"/>
<feBlend mode="normal" in2="BackgroundImageFix" result="effect1_dropShadow_2065_205"/>
<feBlend mode="normal" in="SourceGraphic" in2="effect1_dropShadow_2065_205" result="shape"/>
</filter>
<filter id="filter2_d_2065_205" x="205.971" y="47.8136" width="13.3071" height="12.7292" filterUnits="userSpaceOnUse" color-interpolation-filters="sRGB">
<feFlood flood-opacity="0" result="BackgroundImageFix"/>
<feColorMatrix in="SourceAlpha" type="matrix" values="0 0 0 0 0 0 0 0 0 0 0 0 0 0 0 0 0 0 127 0" result="hardAlpha"/>
<feOffset dx="1" dy="1"/>
<feComposite in2="hardAlpha" operator="out"/>
<feColorMatrix type="matrix" values="0 0 0 0 0.0784314 0 0 0 0 0.180392 0 0 0 0 0.470588 0 0 0 1 0"/>
<feBlend mode="normal" in2="BackgroundImageFix" result="effect1_dropShadow_2065_205"/>
<feBlend mode="normal" in="SourceGraphic" in2="effect1_dropShadow_2065_205" result="shape"/>
</filter>
<filter id="filter3_d_2065_205" x="25.9131" y="20.1791" width="174.761" height="45.8" filterUnits="userSpaceOnUse" color-interpolation-filters="sRGB">
<feFlood flood-opacity="0" result="BackgroundImageFix"/>
<feColorMatrix in="SourceAlpha" type="matrix" values="0 0 0 0 0 0 0 0 0 0 0 0 0 0 0 0 0 0 127 0" result="hardAlpha"/>
<feOffset dx="4" dy="4"/>
<feComposite in2="hardAlpha" operator="out"/>
<feColorMatrix type="matrix" values="0 0 0 0 0.0784314 0 0 0 0 0.180392 0 0 0 0 0.470588 0 0 0 1 0"/>
<feBlend mode="normal" in2="BackgroundImageFix" result="effect1_dropShadow_2065_205"/>
<feBlend mode="normal" in="SourceGraphic" in2="effect1_dropShadow_2065_205" result="shape"/>
</filter>
<clipPath id="clip0_2065_205">
<rect width="232" height="96" fill="white"/>
</clipPath>
</defs>
</svg>
