<svg width="65" height="65" viewBox="0 0 65 65" fill="none" xmlns="http://www.w3.org/2000/svg">
<path fill-rule="evenodd" clip-rule="evenodd" d="M32.5 65C50.4493 65 65 50.6731 65 33C65 15.3269 50.4493 1 32.5 1C14.5507 1 0 15.3269 0 33C0 50.6731 14.5507 65 32.5 65ZM25.7692 13C18.6553 13 13 18.9414 13 26.1304V47V49H15H39.2308C46.3447 49 52 43.0586 52 35.8696V26.1304C52 18.9414 46.3447 13 39.2308 13H25.7692ZM17 26.1304C17 21.0251 20.9878 17 25.7692 17H39.2308C44.0122 17 48 21.0251 48 26.1304V35.8696C48 40.9749 44.0122 45 39.2308 45H17V26.1304ZM21.7308 22.7391C20.6262 22.7391 19.7308 23.6346 19.7308 24.7391C19.7308 25.8437 20.6262 26.7391 21.7308 26.7391H42.5962C43.7007 26.7391 44.5962 25.8437 44.5962 24.7391C44.5962 23.6346 43.7007 22.7391 42.5962 22.7391H21.7308ZM21.7308 29C20.6262 29 19.7308 29.8954 19.7308 31C19.7308 32.1046 20.6262 33 21.7308 33H30.4808C31.5853 33 32.4808 32.1046 32.4808 31C32.4808 29.8954 31.5853 29 30.4808 29H21.7308ZM35.1923 29C34.0877 29 33.1923 29.8954 33.1923 31C33.1923 32.1046 34.0877 33 35.1923 33H42.5962C43.7007 33 44.5962 32.1046 44.5962 31C44.5962 29.8954 43.7007 29 42.5962 29H35.1923ZM21.7308 35.2609C20.6262 35.2609 19.7308 36.1563 19.7308 37.2609C19.7308 38.3654 20.6262 39.2609 21.7308 39.2609H42.5962C43.7007 39.2609 44.5962 38.3654 44.5962 37.2609C44.5962 36.1563 43.7007 35.2609 42.5962 35.2609H21.7308Z" fill="#1E3A8A"/>
</svg>
