<svg width="65" height="65" viewBox="0 0 65 65" fill="none" xmlns="http://www.w3.org/2000/svg">
<path fill-rule="evenodd" clip-rule="evenodd" d="M32.5 65C50.4493 65 65 50.6731 65 33C65 15.3269 50.4493 1 32.5 1C14.5507 1 0 15.3269 0 33C0 50.6731 14.5507 65 32.5 65ZM28.0213 19.8085V23.2128H31.4255H33.1277H36.5319V19.8085V18.1064C36.5319 17.1663 37.294 16.4043 38.234 16.4043C39.1741 16.4043 39.9362 17.1663 39.9362 18.1064V21.0804V23.3492L42.0302 24.2224C46.8039 26.2131 50.1489 30.922 50.1489 36.4043C50.1489 43.6897 44.2429 49.5957 36.9575 49.5957H27.5957C20.3103 49.5957 14.4043 43.6897 14.4043 36.4043C14.4043 30.922 17.7493 26.2131 22.523 24.2224L24.617 23.3492V21.0804V18.1064C24.617 17.1663 25.3791 16.4043 26.3191 16.4043C27.2592 16.4043 28.0213 17.1663 28.0213 18.1064V19.8085ZM26.3191 13C27.9457 13 29.3947 13.7605 30.3298 14.9454C31.016 15.8148 31.4255 16.9128 31.4255 18.1064V19.8085H33.1277V18.1064C33.1277 16.9128 33.5372 15.8148 34.2234 14.9454C35.1585 13.7605 36.6075 13 38.234 13C41.0542 13 43.3404 15.2862 43.3404 18.1064V21.0804C49.3378 23.5814 53.5532 29.5005 53.5532 36.4043C53.5532 45.5698 46.123 53 36.9575 53H27.5957C18.4302 53 11 45.5698 11 36.4043C11 29.5006 15.2154 23.5814 21.2128 21.0804V18.1064C21.2128 15.2862 23.499 13 26.3191 13Z" fill="#1E3A8A"/>
</svg>
