<svg width="64" height="64" viewBox="0 0 64 64" fill="none" xmlns="http://www.w3.org/2000/svg">
<path d="M31.7495 37.9845C31.9831 38.0142 32.2236 38.0029 32.4597 37.9469C32.6255 37.9079 32.7834 37.8483 32.9304 37.7709L40.8944 33.7889C41.8824 33.2949 42.2828 32.0935 41.7889 31.1056C41.2949 30.1176 40.0935 29.7172 39.1056 30.2111L34 32.7639V19C34 17.8954 33.1046 17 32 17C30.8954 17 30 17.8954 30 19V35.9598C29.9965 36.1259 30.0138 36.2937 30.053 36.4595C30.176 36.9826 30.5044 37.4265 30.9484 37.7015C31.1867 37.8492 31.4584 37.9481 31.7495 37.9845Z" fill="#1E3A8A"/>
<path fill-rule="evenodd" clip-rule="evenodd" d="M57 31.5C57 45.031 46.031 56 32.5 56C18.969 56 8 45.031 8 31.5C8 17.969 18.969 7 32.5 7C46.031 7 57 17.969 57 31.5ZM53 31.5C53 42.8218 43.8218 52 32.5 52C21.1782 52 12 42.8218 12 31.5C12 20.1782 21.1782 11 32.5 11C43.8218 11 53 20.1782 53 31.5Z" fill="#1E3A8A"/>
</svg>
