<svg width="65" height="65" viewBox="0 0 65 65" fill="none" xmlns="http://www.w3.org/2000/svg">
<path fill-rule="evenodd" clip-rule="evenodd" d="M19 10C15.134 10 12 13.134 12 17V36C12 39.866 15.134 43 19 43H26V47H24C21.7909 47 20 48.7909 20 51C20 53.2091 21.7909 55 24 55H42C44.2091 55 46 53.2091 46 51C46 48.7909 44.2091 47 42 47H40V43H46C49.866 43 53 39.866 53 36V17C53 13.134 49.866 10 46 10H19ZM46 14H19C17.3431 14 16 15.3431 16 17V36C16 37.6569 17.3431 39 19 39H46C47.6569 39 49 37.6569 49 36V17C49 15.3431 47.6569 14 46 14Z" fill="#1E3A8A"/>
</svg>
