<svg width="64" height="64" viewBox="0 0 64 64" fill="none" xmlns="http://www.w3.org/2000/svg">
<path d="M26 28.5C26 30.433 24.433 32 22.5 32C20.567 32 19 30.433 19 28.5C19 26.567 20.567 25 22.5 25C24.433 25 26 26.567 26 28.5Z" fill="#1E3A8A"/>
<path d="M45 28.5C45 30.433 43.433 32 41.5 32C39.567 32 38 30.433 38 28.5C38 26.567 39.567 25 41.5 25C43.433 25 45 26.567 45 28.5Z" fill="#1E3A8A"/>
<path d="M26.7506 39.5617C27.6131 40.2518 28.8717 40.1119 29.5617 39.2494C30.8118 37.6869 33.1882 37.6869 34.4383 39.2494C35.1283 40.1119 36.3869 40.2518 37.2494 39.5617C38.1119 38.8717 38.2518 37.6131 37.5617 36.7506C34.7104 33.1865 29.2896 33.1865 26.4383 36.7506C25.7482 37.6131 25.8881 38.8717 26.7506 39.5617Z" fill="#1E3A8A"/>
<path fill-rule="evenodd" clip-rule="evenodd" d="M55 32C55 44.7025 44.7025 55 32 55C19.2975 55 9 44.7025 9 32C9 19.2975 19.2975 9 32 9C44.7025 9 55 19.2975 55 32ZM51 32C51 42.4934 42.4934 51 32 51C21.5066 51 13 42.4934 13 32C13 21.5066 21.5066 13 32 13C42.4934 13 51 21.5066 51 32Z" fill="#1E3A8A"/>
</svg>
