<svg width="65" height="65" viewBox="0 0 65 65" fill="none" xmlns="http://www.w3.org/2000/svg">
<path d="M50.691 16.8849L48.7041 17.1134L48.7041 17.1135L50.691 16.8849ZM47.7358 15.1961L48.5819 17.0083V17.0083L47.7358 15.1961ZM51.7985 26.5088L53.7855 26.2813L53.7854 26.2802L51.7985 26.5088ZM51.8127 26.8307L49.8135 26.7748L49.7975 27.3451L50.0849 27.838L51.8127 26.8307ZM38.5169 50.9478L38.4876 48.9481L38.4206 48.949L38.3537 48.9545L38.5169 50.9478ZM12.1873 26.8812L13.9152 27.8885L14.2025 27.3956L14.1865 26.8252L12.1873 26.8812ZM12.2015 26.5593L10.2146 26.3306L10.2145 26.3317L12.2015 26.5593ZM13.309 16.9353L15.2959 17.164L15.2959 17.1639L13.309 16.9353ZM16.2642 15.2465L15.4181 17.0587L15.4181 17.0587L16.2642 15.2465ZM23.8148 18.7719L22.9687 20.5841L23.5883 20.8734L24.2552 20.7228L23.8148 18.7719ZM30.1 17.9969L30.1693 19.9957L30.1964 19.9947L30.2235 19.993L30.1 17.9969ZM40.1852 18.7214L39.7448 20.6724L40.4117 20.8229L41.0313 20.5336L40.1852 18.7214ZM52.6779 16.6563C52.3615 13.9049 49.4592 12.1841 46.8897 13.3839L48.5819 17.0083C48.6021 16.9988 48.6096 17 48.6111 17C48.6163 17.0003 48.6284 17.0024 48.6441 17.0114C48.6599 17.0204 48.6732 17.0329 48.6824 17.0467C48.6898 17.0576 48.6999 17.0766 48.7041 17.1134L52.6779 16.6563ZM53.7854 26.2802L52.6779 16.6562L48.7041 17.1135L49.8116 26.7374L53.7854 26.2802ZM53.8119 26.8867C53.8176 26.6851 53.8086 26.4828 53.7855 26.2813L49.8115 26.7364C49.8135 26.7537 49.8137 26.7664 49.8135 26.7748L53.8119 26.8867ZM50.0849 27.838C51.3003 29.9229 52 32.3588 52 34.9688H56C56 31.6349 55.1043 28.5059 53.5405 25.8235L50.0849 27.838ZM52 34.9688C52 42.6526 45.9374 48.8388 38.4876 48.9481L38.5463 52.9476C48.2407 52.8055 56 44.7798 56 34.9688H52ZM38.3537 48.9545C37.9861 48.9846 37.6141 49 37.2381 49V53C37.7233 53 38.2042 52.9801 38.6801 52.9412L38.3537 48.9545ZM37.2381 49H25.7143V53H37.2381V49ZM25.7143 49C18.1716 49 12 42.7724 12 35.0193H8C8 44.9179 15.8993 53 25.7143 53V49ZM12 35.0193C12 32.4093 12.6997 29.9734 13.9152 27.8885L10.4595 25.8739C8.89575 28.5563 8 31.6854 8 35.0193H12ZM14.1865 26.8252C14.1863 26.8168 14.1865 26.8041 14.1885 26.7868L10.2145 26.3317C10.1914 26.5333 10.1824 26.7355 10.1881 26.9372L14.1865 26.8252ZM14.1884 26.7879L15.2959 17.164L11.3221 16.7067L10.2146 26.3306L14.1884 26.7879ZM15.2959 17.1639C15.3001 17.1271 15.3102 17.1081 15.3176 17.0971C15.3268 17.0834 15.3401 17.0709 15.3559 17.0618C15.3717 17.0528 15.3837 17.0508 15.3889 17.0505C15.3904 17.0504 15.3979 17.0493 15.4181 17.0587L17.1104 13.4343C14.5408 12.2346 11.6385 13.9554 11.3221 16.7068L15.2959 17.1639ZM15.4181 17.0587L22.9687 20.5841L24.661 16.9597L17.1103 13.4343L15.4181 17.0587ZM24.2552 20.7228C25.9976 20.3295 28.0048 20.0706 30.1693 19.9957L30.0308 15.9981C27.6411 16.0808 25.3836 16.3674 23.3744 16.821L24.2552 20.7228ZM30.2235 19.993C30.9714 19.9468 31.7397 19.9227 32.5238 19.9227V15.9227C31.6579 15.9227 30.8073 15.9493 29.9765 16.0007L30.2235 19.993ZM32.5238 19.9227C35.1847 19.9227 37.6538 20.2004 39.7448 20.6724L40.6256 16.7705C38.2181 16.2271 35.4514 15.9227 32.5238 15.9227V19.9227ZM46.8897 13.3839L39.339 16.9092L41.0313 20.5336L48.5819 17.0083L46.8897 13.3839Z" fill="#1E3A8A"/>
</svg>
