<svg width="64" height="64" viewBox="0 0 64 64" fill="none" xmlns="http://www.w3.org/2000/svg">
<path fill-rule="evenodd" clip-rule="evenodd" d="M13.6829 9C9.43976 9 6 12.4398 6 16.6829V46.3171C6 50.5602 9.43977 54 13.6829 54H34.5366C38.7798 54 42.2195 50.5602 42.2195 46.3171V16.6829C42.2195 12.4398 38.7797 9 34.5366 9H13.6829ZM34.5366 13.3902H13.6829C11.8644 13.3902 10.3902 14.8644 10.3902 16.6829V46.3171C10.3902 48.1356 11.8644 49.6098 13.6829 49.6098H34.5366C36.3551 49.6098 37.8293 48.1356 37.8293 46.3171V16.6829C37.8293 14.8644 36.3551 13.3902 34.5366 13.3902Z" fill="#1E3A8A"/>
<path fill-rule="evenodd" clip-rule="evenodd" d="M58.6829 16.6829C58.6829 13.0459 55.7346 10.0975 52.0976 10.0975C48.4606 10.0975 45.5122 13.0459 45.5122 16.6829V47.4146C45.5122 51.0516 48.4606 54 52.0976 54C55.7346 54 58.6829 51.0516 58.6829 47.4146V16.6829ZM54.2927 19.9756V16.6829C54.2927 15.4706 53.3099 14.4878 52.0976 14.4878C50.8852 14.4878 49.9025 15.4706 49.9025 16.6829V19.9756H54.2927ZM54.2927 24.3658H49.9025V47.4146C49.9025 48.6269 50.8852 49.6097 52.0976 49.6097C53.3099 49.6097 54.2927 48.6269 54.2927 47.4146V24.3658Z" fill="#1E3A8A"/>
</svg>
