<svg width="65" height="65" viewBox="0 0 65 65" fill="none" xmlns="http://www.w3.org/2000/svg">
<path d="M13 18.931C13 20.8882 13.7484 22.6592 15.107 23.9312C15.2935 24.1058 15.4893 24.269 15.6935 24.4206C14.3911 25.6098 13.6047 27.3364 13.6047 29.341V42.364C13.6047 46.1878 16.4659 49 20.3128 49C23.5479 49 26.1462 46.9612 26.8389 43.9798C27.105 45.1928 27.6923 46.2846 28.5701 47.1467C29.8031 48.3577 31.4905 49 33.3406 49C37.1197 49 40.0054 46.254 40.0054 42.4483V35.0728C40.0054 34.8462 40.0453 34.7395 40.0648 34.7019C40.0655 34.7016 40.0664 34.7013 40.0672 34.7009C40.0915 34.6917 40.1619 34.6705 40.2947 34.6705C40.4457 34.6705 40.5415 34.6851 40.595 34.6974C40.6239 34.7794 40.6703 34.9664 40.6703 35.3257V42.4483C40.6703 46.254 43.556 49 47.3351 49C49.1852 49 50.8726 48.3577 52.1056 47.1467C53.3402 45.9342 54 44.2675 54 42.4483V32.3755C54 29.4811 52.9974 26.924 51.1371 25.0884C49.2796 23.2555 46.7111 22.2835 43.8365 22.2835C41.6457 22.2835 39.415 22.9706 37.6119 24.304C36.4542 23.1508 34.8343 22.4943 33.0382 22.4943C29.8426 22.4943 27.3459 24.5739 26.7911 27.5324C26.4666 26.3011 25.8127 25.2393 24.9226 24.4276C25.1302 24.274 25.3291 24.1085 25.5185 23.9312C26.8771 22.6592 27.6255 20.8882 27.6255 18.931C27.6255 16.9739 26.8771 15.2029 25.5185 13.9308C24.1678 12.6662 22.3301 12 20.3128 12C18.2954 12 16.4578 12.6662 15.107 13.9308C13.7484 15.2029 13 16.9739 13 18.931ZM40.0751 34.6854C40.0753 34.6855 40.074 34.6876 40.0706 34.6915C40.0733 34.6872 40.075 34.6853 40.0751 34.6854Z" stroke="#1E3A8A" stroke-width="4"/>
</svg>
