<svg width="294" height="96" viewBox="0 0 294 96" fill="none" xmlns="http://www.w3.org/2000/svg">
<g clip-path="url(#clip0_2142_1003)">
<path d="M42.3133 37.462L31.6862 60.944L28.7669 38.8403C23.1333 39.1976 17.4485 39.3252 11.738 39.3507L5.77148 76.3094H15.067L20.1885 44.7873L24.1576 76.3094H34.3494L48.6383 44.7873L43.5168 76.3094H52.8123L59.7263 33.4292C54.1183 35.2924 48.2798 36.5686 42.3133 37.462Z" fill="#151659"/>
<path d="M101.927 39.6316H92.6319L91.9917 43.6899C90.5065 41.0354 86.7934 39.019 82.3121 39.019C71.2241 39.019 62.2615 49.0755 62.2615 61.378C62.2615 71.3068 68.4841 76.9476 76.1663 76.9476C80.5964 76.9476 85.0009 74.9822 87.3823 72.2767L87.9713 76.335H98.3423L97.19 69.1373L101.927 39.6571V39.6316ZM79.3672 67.4527C74.7579 67.4527 71.9411 64.2367 71.9411 59.8466C71.9411 53.6953 76.7553 48.5905 82.4401 48.5905C86.9982 48.5905 89.8663 51.8831 89.8663 56.2732C89.8663 62.2713 85.0521 67.4527 79.3672 67.4527Z" fill="#151659"/>
<path d="M110.327 39.6318H119.75L118.726 45.7065L131.273 38.7896L129.404 49.8925L117.036 55.9671L113.758 76.3097H104.334L110.301 39.6318H110.327Z" fill="#151659"/>
<path d="M138.981 24.5981H148.277L144.103 50.7346H147.688L156.599 39.6317H167.482L154.551 56.1967L161.721 76.3096H151.478L146.279 61.0718H142.361L139.929 76.3096H130.633L138.956 24.5981H138.981Z" fill="#151659"/>
<path d="M171.81 39.6315H181.105L175.139 76.3094H165.843L171.81 39.6315ZM179.236 22.02C182.181 22.02 184.178 24.0364 184.178 27.0482C184.178 31.1065 180.977 34.4502 177.264 34.4502C174.319 34.4502 172.322 32.4338 172.322 29.422C172.322 25.4402 175.472 22.02 179.236 22.02Z" fill="#151659"/>
<path d="M190.273 49.0757H184.895L186.432 39.6318H192.014L193.371 31.0303H202.462L201.105 39.6318H209.12L207.584 49.0757H199.568L196.752 66.534H204.895L203.282 76.3097H185.843L190.273 49.0502V49.0757Z" fill="#151659"/>
<path d="M216.367 47.0591H211.245L212.782 38.4064H218.108L220.541 24.6235H235.854L234.369 32.9443H228.146L227.173 38.3809H234.983L233.447 47.0335H225.637L218.39 86.7232H209.094L216.341 47.0335L216.367 47.0591Z" stroke="#151659" stroke-width="2" stroke-miterlimit="10"/>
<path d="M243.152 24.5981H252.448L244.125 76.3096H234.83L243.152 24.5981Z" stroke="#151659" stroke-width="2" stroke-miterlimit="10"/>
<path d="M262.537 75.4674L258.926 57.5496L255.316 39.6318H265.559L267.684 51.9344L269.809 64.2369L275.571 51.9344L281.333 39.6318H292.6L278.951 65.9725L269.733 90.2458C268.811 92.6961 266.429 94.3296 263.792 94.304H256.673L124.923 93.0023L256.519 87.5657C257.723 87.5657 258.773 86.7745 259.157 85.6259L262.537 75.4674Z" stroke="#151659" stroke-width="2" stroke-miterlimit="10"/>
<path d="M64.7966 25.5679C55.2194 30.443 17.7046 42.2095 10.5601 32.1786C9.10049 29.7028 9.63824 26.9973 10.893 24.547C12.4294 22.2498 14.6829 21.2034 16.7571 20.2079C28.6133 14.7713 45.5398 13.8014 51.532 0.962891C48.6383 10.1515 38.2673 13.5462 30.1498 16.7877C24.3113 19.3146 16.6547 20.5397 12.6087 25.5424C6.48853 41.2907 44.0034 29.2434 50.3796 27.0483C54.3488 25.619 58.9837 24.0365 62.4919 21.9691L64.7966 25.5424V25.5679Z" fill="#151659"/>
<path d="M64.6942 30.0344L65.3087 26.0782L65.8977 22.122L61.9542 21.5094L58.0106 20.9224V20.9479L63.4906 23.6534L64.6942 30.0344Z" fill="#151659"/>
<path d="M51.4039 0.0693359C53.1708 16.9151 33.1971 26.895 18.6008 25.2104C22.4163 24.8531 26.1294 24.1384 29.7144 22.9898C40.2391 19.5441 49.8163 11.6317 51.4039 0.0693359Z" fill="#151659"/>
<path d="M43.6192 20.3608C41.6218 24.6999 36.9869 27.8904 32.0959 28.1712C29.7912 28.1967 27.4097 28.1712 25.0795 27.7117C22.7492 27.2778 20.4445 26.4355 18.5496 25.0572C27.2561 27.1502 36.9101 27.1247 43.6192 20.3864V20.3608Z" fill="#151659"/>
<path d="M30.3034 28.9625C26.7952 32.153 21.1616 28.3244 18.6008 25.4912C22.2115 27.3289 26.155 30.06 30.3034 28.9625Z" fill="#151659"/>
<path d="M8.7163 24.2661C-0.374331 21.6371 5.2593 10.279 13.0183 12.423C15.2718 13.1887 16.501 15.3072 17.0131 17.2981C16.04 15.4603 14.6316 13.7758 12.7367 13.3419C9.10041 12.4996 4.82397 16.0219 5.20808 19.7484C5.36173 21.6371 7.05182 23.143 8.79312 24.2406L8.76751 24.2916H8.74191L8.7163 24.2661Z" fill="#151659"/>
<path d="M3.46681 16.7622C2.0328 15.6647 1.49504 14.1587 0.854858 12.6528L2.05841 12.7294C3.18513 12.806 4.49111 12.9591 5.54101 13.5717C4.36307 14.0822 3.18513 14.2098 2.00719 14.2353L2.7242 13.1888C3.21074 14.2864 3.56924 15.4349 3.46681 16.7877V16.7622Z" fill="#151659"/>
</g>
<defs>
<clipPath id="clip0_2142_1003">
<rect width="293" height="95" fill="white" transform="translate(0.854858 0.0693359)"/>
</clipPath>
</defs>
</svg>
