<svg width="299" height="97" viewBox="0 0 299 97" fill="none" xmlns="http://www.w3.org/2000/svg">
<g clip-path="url(#clip0_2142_947)">
<path d="M43.202 38.6625L32.3471 62.5845L29.3653 40.0667C23.6109 40.4307 17.8042 40.5607 11.9713 40.5867L5.87683 78.2378H15.3716L20.6029 46.1252L24.6571 78.2378H35.0674L49.6627 46.1252L44.4314 78.2378H53.9262L60.9884 34.5542C55.2601 36.4524 49.2965 37.7525 43.202 38.6625Z" fill="#151659"/>
<path d="M104.094 40.8726H94.5994L93.9455 45.0069C92.4284 42.3027 88.6357 40.2485 84.0584 40.2485C72.7326 40.2485 63.5779 50.4934 63.5779 63.0264C63.5779 73.1413 69.9339 78.8878 77.7808 78.8878C82.3059 78.8878 86.8048 76.8856 89.2373 74.1294L89.8389 78.2637H100.432L99.2552 70.9311L104.094 40.8986V40.8726ZM81.0504 69.2149C76.3422 69.2149 73.465 65.9387 73.465 61.4663C73.465 55.1998 78.3824 49.9993 84.1891 49.9993C88.845 49.9993 91.7745 53.3536 91.7745 57.826C91.7745 63.9365 86.8571 69.2149 81.0504 69.2149Z" fill="#151659"/>
<path d="M112.673 40.8727H122.299L121.253 47.0612L134.069 40.0146L132.16 51.3256L119.526 57.5141L116.178 78.2378H106.553L112.647 40.8727H112.673Z" fill="#151659"/>
<path d="M141.943 25.5576H151.437L147.174 52.1838H150.836L159.938 40.8729H171.055L157.846 57.7483L165.169 78.238H154.707L149.397 62.7147H145.395L142.91 78.238H133.416L141.916 25.5576H141.943Z" fill="#151659"/>
<path d="M175.475 40.8726H184.97L178.875 78.2378H169.381L175.475 40.8726ZM183.06 22.9312C186.068 22.9312 188.109 24.9853 188.109 28.0536C188.109 32.1879 184.839 35.5942 181.046 35.5942C178.038 35.5942 175.998 33.54 175.998 30.4718C175.998 26.4154 179.215 22.9312 183.06 22.9312Z" fill="#151659"/>
<path d="M194.334 50.4934H188.841L190.41 40.8726H196.112L197.499 32.1099H206.784L205.398 40.8726H213.585L212.016 50.4934H203.829L200.951 68.2789H209.269L207.621 78.2377H189.809L194.334 50.4674V50.4934Z" fill="#151659"/>
<path d="M220.987 50.4937H215.756L217.325 40.8729H222.766L225.251 25.5576H240.892L239.375 34.8144H233.019L232.025 40.8729H240.003L238.433 50.4937H230.456L223.053 94.5414H213.559L220.961 50.4937H220.987Z" fill="#151659"/>
<path d="M248.347 25.5576H257.842L249.341 78.238H239.846L248.347 25.5576Z" fill="#151659"/>
<path d="M268.147 77.3796L264.459 59.1261L260.771 40.8726H271.234L273.405 53.4056L275.576 65.9386L281.461 53.4056L287.346 40.8726H298.855L284.913 67.7068L275.497 92.4349C274.556 94.9311 272.123 96.5952 269.429 96.5692H262.157L127.583 95.2431L262 89.7046C263.23 89.7046 264.302 88.8986 264.695 87.7285L268.147 77.3796Z" fill="#151659"/>
<path d="M66.1674 26.5456C56.3849 31.512 18.0658 43.499 10.7681 33.2801C9.2772 30.7579 9.82649 28.0017 11.1082 25.5055C12.6775 23.1653 14.9793 22.0992 17.098 21.0851C29.2084 15.5467 46.4978 14.5586 52.6184 1.47949C49.6627 10.8403 39.0694 14.2986 30.7778 17.6008C24.8141 20.1751 16.9933 21.4232 12.8606 26.5196C6.60925 42.5629 44.9284 30.2899 51.4413 28.0537C55.4956 26.5976 60.2299 24.9855 63.8133 22.8793L66.1674 26.5196V26.5456Z" fill="#151659"/>
<path d="M66.0628 31.0958L66.6905 27.0654L67.2921 23.0351L63.2641 22.411L59.236 21.813V21.839L64.8334 24.5952L66.0628 31.0958Z" fill="#151659"/>
<path d="M52.4876 0.569336C54.2924 17.7308 33.8904 27.8976 18.9812 26.1815C22.8785 25.8174 26.6712 25.0894 30.3331 23.9193C41.0834 20.409 50.8659 12.3483 52.4876 0.569336Z" fill="#151659"/>
<path d="M44.5361 21.2412C42.4959 25.6616 37.7616 28.9119 32.7657 29.1979C30.4116 29.2239 27.9791 29.1979 25.5988 28.7298C23.2186 28.2878 20.8645 27.4297 18.929 26.0256C27.8221 28.1578 37.6831 28.1318 44.5361 21.2672V21.2412Z" fill="#151659"/>
<path d="M30.9347 30.0036C27.3513 33.2539 21.5968 29.3535 18.9812 26.4673C22.6693 28.3394 26.6973 31.1217 30.9347 30.0036Z" fill="#151659"/>
<path d="M8.88491 25.2196C-0.400611 22.5414 5.3538 10.9704 13.2792 13.1546C15.581 13.9346 16.8365 16.0928 17.3596 18.121C16.3656 16.2488 14.927 14.5327 12.9915 14.0907C9.27726 13.2326 4.90914 16.8209 5.30149 20.6172C5.45843 22.5414 7.18475 24.0755 8.96338 25.1936L8.93723 25.2456H8.91107L8.88491 25.2196Z" fill="#151659"/>
<path d="M3.52281 17.5745C2.05805 16.4564 1.50877 14.9223 0.854858 13.3882L2.08421 13.4662C3.23509 13.5442 4.56907 13.7002 5.64148 14.3243C4.43829 14.8443 3.23509 14.9743 2.0319 15.0003L2.76428 13.9342C3.26125 15.0523 3.62744 16.2224 3.52281 17.6005V17.5745Z" fill="#151659"/>
</g>
<defs>
<clipPath id="clip0_2142_947">
<rect width="298" height="96" fill="white" transform="translate(0.854858 0.569336)"/>
</clipPath>
</defs>
</svg>
